<svg xmlns="http://www.w3.org/2000/svg" width="24px" height="24px" viewBox="0 0 24 24" ><path d="M0 12C0 5.379 5.37927 0 12.0003 0C18.621 0 24 5.379 24 12C24 18.621 18.621 24 12.0003 24C5.37927 24 0 18.621 0 12ZM11.4548 1.14191L11.4548 5.72727L7.54282 5.72727C7.743 5.15973 7.96745 4.62873 8.21591 4.15064C9.108 2.43409 10.2409 1.38355 11.4548 1.14191ZM15.7844 4.15064C14.8923 2.43409 13.7594 1.38355 12.5457 1.14191L12.5457 5.72727L16.4575 5.72727C16.2573 5.15973 16.0328 4.62873 15.7844 4.15064ZM8.65909 1.61073C8.12673 2.17527 7.65055 2.86609 7.24445 3.64773C6.91582 4.27991 6.62809 4.97727 6.38373 5.72727L3.06818 5.72727C4.41845 3.80755 6.37582 2.34327 8.65909 1.61073ZM20.9321 5.72727C19.5818 3.80755 17.6245 2.34327 15.3409 1.61073C15.8735 2.17527 16.3497 2.86609 16.7558 3.64773C17.0842 4.27991 17.3725 4.97727 17.6165 5.72727L20.9321 5.72727ZM2.39509 6.81818L6.06818 6.81818C5.71009 8.23473 5.50118 9.80046 5.46327 11.4545L1.10809 11.4545C1.19018 9.78 1.64264 8.20991 2.39509 6.81818ZM11.4548 6.81818L7.20191 6.81818C6.82527 8.20855 6.59536 9.78027 6.55418 11.4545L11.4548 11.4545L11.4548 6.81818ZM12.5457 6.81818L16.7984 6.81818C17.175 8.20855 17.4049 9.78027 17.4461 11.4545L12.5457 11.4545L12.5457 6.81818ZM21.6052 6.81818L17.9318 6.81818C18.2902 8.23473 18.4991 9.80046 18.537 11.4545L22.8922 11.4545C22.8101 9.78 22.3574 8.20991 21.6052 6.81818ZM1.10809 12.5455L5.46327 12.5455C5.50118 14.2006 5.718 15.7666 6.07691 17.1818L2.39509 17.1818C1.64264 15.7898 1.19018 14.22 1.10809 12.5455ZM11.4548 12.5455L6.55418 12.5455C6.59536 14.2214 6.82445 15.7923 7.20191 17.1818L11.4548 17.1818L11.4548 12.5455ZM12.5457 12.5455L17.4461 12.5455C17.4049 14.2214 17.1758 15.7923 16.7984 17.1818L12.5457 17.1818L12.5457 12.5455ZM22.8922 12.5455L18.537 12.5455C18.4991 14.2006 18.2823 15.7666 17.9234 17.1818L21.6052 17.1818C22.3574 15.7898 22.8101 14.22 22.8922 12.5455ZM3.06818 18.2727L6.39218 18.2727C6.636 19.0175 6.91745 19.7144 7.24445 20.3438C7.65245 21.129 8.13245 21.822 8.66782 22.3893C6.381 21.6575 4.42009 20.1946 3.06818 18.2727ZM11.4548 18.2727L7.54282 18.2727C7.743 18.8389 7.96773 19.3628 8.21591 19.8409C9.108 21.5575 10.2409 22.6145 11.4548 22.8578L11.4548 18.2727ZM12.5457 18.2727L16.4575 18.2727C16.2575 18.8389 16.0328 19.3628 15.7844 19.8409C14.8923 21.5575 13.7594 22.6145 12.5457 22.8578L12.5457 18.2727ZM20.9321 18.2727L17.6081 18.2727C17.3643 19.0175 17.0828 19.7144 16.7558 20.3438C16.3478 21.129 15.8678 21.822 15.3325 22.3893C17.6193 21.6575 19.5802 20.1946 20.9321 18.2727Z" id="Fill-1" fill="#7C91CA" fill-rule="evenodd" stroke="none" /></svg>