<svg xmlns="http://www.w3.org/2000/svg" width="17px" height="17px" viewBox="0 0 17 17" ><path d="M8.21751 6.09619L2.55995 0.438632Q2.50788 0.38656 2.45096 0.339842Q2.39403 0.293125 2.3328 0.252212Q2.27157 0.211299 2.20662 0.176585Q2.14168 0.141871 2.07364 0.113689Q2.00561 0.0855082 1.93514 0.0641313Q1.86467 0.0427544 1.79244 0.0283877Q1.72022 0.014021 1.64693 0.0068029Q1.57364 -0.000415204 1.5 -0.000415216Q1.42636 -0.000415229 1.35307 0.00680285Q1.27979 0.0140209 1.20756 0.0283876Q1.13533 0.0427543 1.06486 0.0641311Q0.994394 0.085508 0.926359 0.113689Q0.858323 0.14187 0.793378 0.176585Q0.728432 0.211299 0.667202 0.252212Q0.605971 0.293124 0.549046 0.339842Q0.492121 0.386559 0.440048 0.438631L0.438634 0.440046Q0.334238 0.544442 0.252214 0.667199Q0.170191 0.789956 0.113692 0.926356Q0.057193 1.06276 0.0283901 1.20756Q-0.00041279 1.35236 -0.000412807 1.5Q-0.000412824 1.64764 0.02839 1.79244Q0.0571929 1.93724 0.113692 2.07364Q0.170191 2.21004 0.252214 2.3328Q0.334238 2.45555 0.438634 2.55995L6.09619 8.21751L0.438631 13.8751Q0.386559 13.9271 0.339842 13.9841Q0.293124 14.041 0.252211 14.1022Q0.211299 14.1635 0.176584 14.2284Q0.14187 14.2934 0.113689 14.3614Q0.0855079 14.4294 0.064131 14.4999Q0.0427541 14.5704 0.0283875 14.6426Q0.0140208 14.7148 0.00680275 14.7881Q-0.000415338 14.8614 -0.000415338 14.935Q-0.000415338 15.0087 0.00680275 15.082Q0.0140208 15.1552 0.0283875 15.2275Q0.0427541 15.2997 0.064131 15.3702Q0.0855079 15.4406 0.113689 15.5087Q0.14187 15.5767 0.176584 15.6417Q0.211299 15.7066 0.252211 15.7678Q0.293124 15.8291 0.339842 15.886Q0.386559 15.9429 0.438631 15.995L0.440044 15.9964Q0.492117 16.0485 0.549042 16.0952Q0.605967 16.1419 0.667198 16.1828Q0.728428 16.2237 0.793374 16.2584Q0.85832 16.2932 0.926355 16.3213Q0.994391 16.3495 1.06486 16.3709Q1.13533 16.3923 1.20756 16.4066Q1.27978 16.421 1.35307 16.4282Q1.42636 16.4354 1.5 16.4354Q1.57364 16.4354 1.64693 16.4282Q1.72021 16.421 1.79244 16.4066Q1.86466 16.3923 1.93513 16.3709Q2.00561 16.3495 2.07364 16.3213Q2.14168 16.2932 2.20662 16.2584Q2.27157 16.2237 2.3328 16.1828Q2.39403 16.1419 2.45095 16.0952Q2.50788 16.0485 2.55995 15.9964L8.21751 10.3388L13.8751 15.9964Q13.9795 16.1008 14.1022 16.1828Q14.225 16.2648 14.3614 16.3213Q14.4978 16.3778 14.6426 16.4066Q14.7874 16.4354 14.935 16.4354Q15.0827 16.4354 15.2275 16.4066Q15.3723 16.3778 15.5087 16.3213Q15.6451 16.2648 15.7678 16.1828Q15.8906 16.1008 15.995 15.9964L15.9964 15.995Q16.0485 15.9429 16.0952 15.886Q16.1419 15.8291 16.1828 15.7678Q16.2237 15.7066 16.2584 15.6417Q16.2932 15.5767 16.3213 15.5087Q16.3495 15.4406 16.3709 15.3702Q16.3923 15.2997 16.4066 15.2275Q16.421 15.1552 16.4282 15.082Q16.4354 15.0087 16.4354 14.935Q16.4354 14.8614 16.4282 14.7881Q16.421 14.7148 16.4066 14.6426Q16.3923 14.5704 16.3709 14.4999Q16.3495 14.4294 16.3213 14.3614Q16.2932 14.2934 16.2584 14.2284Q16.2237 14.1635 16.1828 14.1022Q16.1419 14.041 16.0952 13.9841Q16.0485 13.9271 15.9964 13.8751L10.3388 8.21751L15.9964 2.55995Q16.0485 2.50788 16.0952 2.45096Q16.1419 2.39403 16.1828 2.3328Q16.2237 2.27157 16.2584 2.20662Q16.2932 2.14168 16.3213 2.07364Q16.3495 2.00561 16.3709 1.93514Q16.3923 1.86467 16.4066 1.79244Q16.421 1.72022 16.4282 1.64693Q16.4354 1.57364 16.4354 1.5Q16.4354 1.42636 16.4282 1.35307Q16.421 1.27979 16.4066 1.20756Q16.3923 1.13533 16.3709 1.06486Q16.3495 0.994394 16.3213 0.926358Q16.2932 0.858323 16.2584 0.793377Q16.2237 0.728432 16.1828 0.667201Q16.1419 0.605971 16.0952 0.549045Q16.0485 0.49212 15.9964 0.440048L15.995 0.438634Q15.8906 0.334238 15.7678 0.252214Q15.6451 0.17019 15.5087 0.113691Q15.3723 0.0571925 15.2275 0.0283897Q15.0827 -0.000413213 14.935 -0.000413209Q14.7874 -0.000413204 14.6426 0.0283897Q14.4978 0.0571925 14.3614 0.113691Q14.225 0.17019 14.1022 0.252214Q13.9795 0.334237 13.8751 0.438634L8.21751 6.09619Z" id="Combined-Shape" fill="#898B8E" fill-rule="evenodd" stroke="none" /></svg>